<!DOCTYPE svg PUBLIC "-//W3C//DTD SVG 20010904//EN" "http://www.w3.org/TR/2001/REC-SVG-20010904/DTD/svg10.dtd">
<svg version="1.0" xmlns="http://www.w3.org/2000/svg" width="396px" height="156px" viewBox="0 0 3960 1560" preserveAspectRatio="xMidYMid meet">
<g id="layer101" fill="#080404" stroke="none">
<path d="M0 780 l0 -780 1980 0 1980 0 0 780 0 780 -1980 0 -1980 0 0 -780z"/>
</g>
<g id="layer102" fill="#fc0102" stroke="none">
<path d="M0 780 l0 -780 1980 0 1980 0 0 780 0 780 -1980 0 -1980 0 0 -780z m1970 495 c-26 -28 -45 -32 -53 -11 -8 20 13 36 47 36 l29 0 -23 -25z m-1615 -27 c3 -13 -1 -61 -8 -108 l-12 -85 -60 -1 -60 -1 50 6 50 6 3 103 c2 81 6 102 17 102 8 0 17 -10 20 -22z m125 -8 c7 -17 10 -34 6 -37 -9 -9 -35 28 -36 50 0 27 16 20 30 -13z m188 5 c16 -34 15 -50 -1 -33 -16 15 -28 58 -18 58 4 0 13 -11 19 -25z m1110 13 c-7 -19 -38 -22 -38 -4 0 10 9 16 21 16 12 0 19 -5 17 -12z m975 -23 c21 -43 21 -45 2 -45 -8 0 -15 9 -15 21 0 11 -5 29 -10 40 -6 10 -7 19 -2 19 4 0 16 -16 25 -35z m136 -27 c19 -57 20 -63 4 -80 -17 -19 -78 -25 -88 -8 -3 6 4 10 17 10 40 0 51 14 45 56 -2 22 -8 49 -12 62 -4 13 -3 22 3 22 6 0 20 -28 31 -62z m289 -44 c23 -58 42 -109 42 -115 0 -5 -26 -8 -57 -7 -50 1 -52 2 -15 5 23 2 42 8 42 13 0 4 -16 50 -35 100 -37 97 -40 110 -27 110 5 0 27 -47 50 -106z m106 84 c3 -13 6 -30 6 -38 -1 -13 -2 -13 -9 0 -16 27 -22 60 -13 60 5 0 12 -10 16 -22z m484 -84 c23 -58 42 -109 42 -115 0 -5 -26 -8 -57 -7 -50 1 -52 2 -15 5 23 2 42 8 42 13 0 4 -16 50 -35 100 -37 97 -40 110 -27 110 5 0 27 -47 50 -106z m146 -2 c20 -59 36 -110 36 -115 0 -4 -26 -6 -57 -5 -50 1 -52 2 -15 5 23 2 42 8 42 13 0 4 -16 50 -35 100 -39 103 -41 110 -21 110 9 0 27 -38 50 -108z m-2914 19 c0 -52 -26 -71 -95 -71 -30 0 -55 5 -55 10 0 6 -6 10 -14 10 -8 0 -17 4 -20 8 -3 5 16 4 42 -1 66 -14 106 5 110 51 2 18 -3 41 -10 49 -11 13 -8 13 15 -1 21 -15 27 -26 27 -55z m501 32 c25 -67 -6 -103 -91 -103 -27 0 -50 4 -50 9 0 5 -8 11 -17 13 -10 2 7 4 38 3 73 0 109 19 109 58 0 17 -8 36 -17 43 -17 13 -17 14 0 8 10 -4 23 -18 28 -31z m1108 21 c2 -2 -30 -4 -72 -4 -42 0 -77 4 -77 9 0 9 139 4 149 -5z m981 2 c8 -2 -20 -4 -62 -5 -43 0 -78 3 -78 7 0 7 103 6 140 -2z m-2718 -14 c-7 -2 -12 -10 -12 -18 0 -8 -6 -11 -15 -8 -8 4 -15 12 -15 19 0 16 19 24 39 17 10 -4 11 -7 3 -10z m1463 -2 c10 -11 16 -20 13 -20 -3 0 -13 9 -23 20 -10 11 -16 20 -13 20 3 0 13 -9 23 -20z m695 10 c13 -8 12 -10 -2 -10 -10 0 -18 -8 -18 -17 0 -13 -3 -14 -11 -6 -12 12 -6 43 8 43 4 0 15 -5 23 -10z m-1657 -20 c-3 -11 -9 -17 -14 -14 -14 8 -10 34 5 34 9 0 12 -7 9 -20z m601 14 c14 -5 14 -8 0 -29 -13 -19 -18 -21 -38 -12 l-23 11 21 18 c25 21 21 19 40 12z m-1755 -41 c-1 -21 -3 -30 -6 -20 -2 9 -9 17 -14 17 -5 0 -9 9 -9 20 0 11 7 20 15 20 11 0 15 -10 14 -37z m1681 27 c0 -5 -12 -10 -26 -10 -14 0 -23 4 -19 10 3 6 15 10 26 10 10 0 19 -4 19 -10z m-760 -61 l0 -39 -50 0 c-40 0 -48 3 -44 15 4 9 19 15 40 15 31 0 34 2 34 31 0 17 4 28 10 24 6 -3 10 -24 10 -46z m583 44 c-7 -2 -19 -2 -25 0 -7 3 -2 5 12 5 14 0 19 -2 13 -5z m546 -22 c7 -15 11 -48 9 -72 l-3 -44 -55 -1 c-34 -1 -40 0 -17 3 l37 4 0 70 c0 73 10 87 29 40z m369 5 c2 -9 -8 -28 -23 -42 -31 -29 -107 -33 -140 -8 -19 15 -19 16 12 9 17 -3 48 -3 68 1 29 5 39 13 47 36 11 31 31 33 36 4z m992 -2 c0 -7 -11 -25 -25 -39 -21 -20 -36 -25 -76 -25 -33 0 -56 6 -67 16 -15 15 -14 16 7 9 13 -4 42 -4 66 -1 35 6 45 12 55 36 12 29 40 32 40 4z m-3050 -51 c0 -7 -11 -13 -24 -13 -13 0 -27 6 -30 13 -5 10 -7 10 -12 0 -9 -19 -94 -17 -94 2 0 13 21 18 80 17 3 0 16 -3 28 -7 20 -6 23 -4 22 17 -1 12 -1 28 0 33 2 12 29 -44 30 -62z m200 -5 c0 -5 -13 -8 -30 -8 -17 0 -30 5 -31 13 0 10 -2 10 -6 0 -7 -19 -93 -17 -93 1 0 13 65 28 76 17 2 -3 14 -6 25 -8 16 -2 20 2 19 19 -4 42 1 43 20 8 11 -19 19 -38 20 -42z m1737 66 c-3 -3 -12 -4 -19 -1 -8 3 -5 6 6 6 11 1 17 -2 13 -5z m878 -46 c6 -25 4 -28 -18 -28 -14 0 -29 5 -32 10 -3 6 1 10 11 10 13 0 15 6 10 32 -6 29 -5 31 8 18 8 -8 18 -27 21 -42z m108 45 c-7 -2 -19 -2 -25 0 -7 3 -2 5 12 5 14 0 19 -2 13 -5z m-1553 -62 c0 -47 -94 -67 -158 -35 -18 8 -32 17 -32 18 0 1 22 -2 48 -7 68 -14 108 5 105 51 l-1 33 19 -22 c10 -12 19 -29 19 -38z m440 34 c13 -14 21 -25 18 -25 -2 0 -15 11 -28 25 -13 14 -21 25 -18 25 2 0 15 -11 28 -25z m-560 -5 c0 -5 -4 -10 -10 -10 -5 0 -10 5 -10 10 0 6 5 10 10 10 6 0 10 -4 10 -10z m953 -26 c-7 -20 -93 -20 -93 0 0 10 13 16 38 18 48 4 62 0 55 -18z m250 15 c15 6 27 9 27 7 0 -3 3 -11 6 -20 5 -13 -2 -16 -35 -16 -23 0 -41 5 -41 10 0 6 -6 10 -14 10 -8 0 -17 4 -21 10 -3 6 5 5 23 -1 19 -6 37 -6 55 0z m281 5 c30 -12 5 -34 -40 -34 -54 0 -63 26 -11 33 17 2 33 5 34 5 1 1 8 -1 17 -4z m-2026 -21 c6 -20 -94 -17 -102 3 -5 13 3 15 46 12 30 -2 53 -8 56 -15z m1182 -65 c0 -4 -24 -7 -52 -6 -51 1 -51 2 -10 5 23 2 42 7 42 10 0 4 -10 18 -22 32 -19 21 -17 20 10 -3 17 -17 32 -33 32 -38z m-1290 -264 c44 -109 80 -202 80 -206 0 -4 -9 -8 -20 -8 -11 0 -20 6 -20 13 0 7 -32 92 -70 187 -48 119 -69 183 -65 199 3 13 8 21 11 19 2 -3 40 -95 84 -204z m1162 169 c25 -7 67 -85 74 -137 l7 -46 -94 2 c-92 2 -92 2 -20 5 l74 4 -6 49 c-7 62 -30 105 -65 125 -15 9 -18 13 -7 10 11 -4 28 -9 37 -12z m621 -13 c21 -23 27 -40 27 -77 0 -42 -4 -50 -45 -90 -25 -24 -51 -43 -59 -43 -7 0 -26 -10 -41 -22 -24 -19 -27 -26 -22 -65 2 -23 3 -43 1 -43 -18 0 -44 40 -44 67 0 35 20 60 55 69 13 3 26 12 29 20 3 8 12 14 19 14 8 0 27 11 43 25 26 22 29 31 28 82 -1 46 -6 59 -25 74 -18 14 -20 19 -8 19 9 0 28 -13 42 -30z m-1633 -175 c0 -123 -4 -195 -10 -195 -6 0 -10 72 -10 195 0 123 4 195 10 195 6 0 10 -72 10 -195z m100 190 c0 -2 9 -27 20 -55 28 -71 2 -67 -33 5 -26 53 -26 55 -7 55 11 0 20 -2 20 -5z m300 1 c0 -6 -160 -390 -165 -394 -2 -2 -7 7 -10 21 -5 18 2 45 23 89 16 35 36 81 43 103 7 22 22 63 35 90 12 28 25 60 28 73 5 13 15 22 27 22 10 0 19 -2 19 -4z m130 -166 c0 -163 -1 -170 -20 -170 -19 0 -20 7 -20 170 0 163 1 170 20 170 19 0 20 -7 20 -170z m840 160 c0 -6 -33 -10 -80 -10 l-80 0 0 -85 c0 -78 -2 -85 -20 -85 -19 0 -20 7 -20 90 l0 89 88 4 c48 1 93 4 100 5 6 1 12 -2 12 -8z m160 6 c0 -7 -76 -56 -88 -56 -20 0 9 49 32 53 30 6 56 8 56 3z m-679 -13 c-26 -5 -36 -12 -89 -62 -35 -33 -36 -37 -37 -105 0 -73 3 -80 58 -138 28 -30 1 -21 -37 12 -19 17 -38 44 -41 60 -4 17 -11 30 -16 30 -16 0 -9 65 12 111 32 69 72 99 128 98 25 -1 35 -4 22 -6z m76 0 c-4 -3 -10 -3 -14 0 -3 4 0 7 7 7 7 0 10 -3 7 -7z m-1185 -75 c8 -22 -96 -292 -113 -296 -13 -2 -4 31 39 153 30 85 58 155 62 155 5 0 10 -6 12 -12z m475 -65 c-33 -3 -47 -8 -44 -16 38 -93 44 -115 38 -125 -4 -7 -22 20 -44 63 -20 42 -37 78 -37 80 0 3 30 4 68 3 57 -1 60 -2 19 -5z m1153 -58 c0 -12 -16 -15 -80 -15 l-80 0 0 -55 c0 -48 -2 -55 -20 -55 -18 0 -20 7 -20 60 l0 60 85 0 c50 0 85 4 85 10 0 6 7 10 15 10 8 0 15 -7 15 -15z m-313 -86 c8 -8 4 -18 -13 -36 -37 -40 -71 -53 -133 -52 -54 1 -55 2 -16 9 56 10 86 25 115 59 28 34 32 35 47 20z m568 -69 c-13 -14 -30 -20 -59 -19 -23 0 -34 3 -26 6 34 11 65 29 74 41 6 10 11 11 19 3 7 -7 5 -16 -8 -31z m-985 -5 c0 -13 -21 -15 -137 -13 l-138 2 123 3 c70 2 122 8 122 13 0 6 7 10 15 10 8 0 15 -7 15 -15z m730 0 c0 -12 -17 -15 -102 -13 l-103 2 88 3 c48 2 87 8 87 13 0 6 7 10 15 10 8 0 15 -7 15 -15z m-533 -11 c-3 -3 -12 -4 -19 -1 -8 3 -5 6 6 6 11 1 17 -2 13 -5z"/>
</g>
<g id="layer103" fill="#0101fd" stroke="none">
<path d="M0 780 l0 -780 1980 0 1980 0 0 780 0 780 -1517 -1 -1518 -1 210 -53 210 -53 -252 -1 -253 -1 20 50 c11 28 20 53 20 55 0 3 -198 5 -440 5 l-440 0 0 -780z m1025 520 c17 -19 17 -25 3 -90 l-15 -70 54 0 53 0 0 33 1 32 30 -33 c27 -30 35 -33 76 -30 l46 3 -29 34 c-16 19 -40 46 -54 62 -14 15 -35 39 -47 53 l-23 26 272 0 c212 0 269 -3 260 -12 -31 -31 10 -108 58 -108 13 0 17 -5 13 -21 -3 -11 0 -31 7 -44 23 -44 149 -57 180 -19 19 22 3 64 -31 78 -16 7 -26 15 -22 19 10 11 43 8 43 -3 0 -17 26 -11 45 10 18 20 18 21 -2 26 -29 8 -35 29 -14 48 17 15 27 14 130 -11 l112 -28 -5 -30 c-3 -16 -8 -60 -12 -97 l-6 -68 46 0 46 0 0 70 c0 68 12 91 25 50 3 -11 10 -20 14 -20 4 0 18 -22 31 -50 l23 -50 59 0 c32 0 58 3 58 6 0 4 -32 45 -72 93 -39 47 -63 78 -52 69 11 -10 25 -18 32 -18 6 0 23 -13 39 -28 36 -35 103 -56 155 -47 32 6 42 13 50 36 12 35 33 33 33 -2 0 -29 29 -38 91 -29 49 7 65 3 58 -15 -7 -16 -27 -10 351 -100 154 -37 282 -69 284 -71 8 -8 -353 -934 -364 -934 -6 0 -576 138 -1266 308 l-1254 307 92 245 c51 134 90 246 88 249 -3 2 -5 -1 -5 -7 0 -7 -17 -12 -45 -12 -32 0 -45 4 -45 14 0 13 65 28 76 17 2 -3 14 -6 25 -8 18 -3 21 1 17 22 -7 34 9 42 32 17 36 -39 150 -51 187 -20 19 15 15 70 -6 95 -25 30 -62 43 -121 43 -40 0 -48 3 -44 15 5 12 27 15 114 15 94 0 109 -2 125 -20z m800 10 c-3 -5 -13 -10 -21 -10 -8 0 -14 5 -14 10 0 6 9 10 21 10 11 0 17 -4 14 -10z m-1470 -62 c3 -13 -1 -61 -8 -108 l-12 -85 -60 -1 -60 -1 50 6 50 6 3 103 c2 81 6 102 17 102 8 0 17 -10 20 -22z m125 -8 c7 -17 10 -34 6 -37 -9 -9 -35 28 -36 50 0 27 16 20 30 -13z m188 5 c16 -34 15 -50 -1 -33 -16 15 -28 58 -18 58 4 0 13 -11 19 -25z m1110 13 c-7 -19 -38 -22 -38 -4 0 10 9 16 21 16 12 0 19 -5 17 -12z m975 -23 c21 -43 21 -45 2 -45 -8 0 -15 9 -15 21 0 11 -5 29 -10 40 -6 10 -7 19 -2 19 4 0 16 -16 25 -35z m136 -27 c19 -57 20 -63 4 -80 -17 -19 -78 -25 -88 -8 -3 6 4 10 17 10 40 0 51 14 45 56 -2 22 -8 49 -12 62 -4 13 -3 22 3 22 6 0 20 -28 31 -62z m289 -44 c23 -58 42 -109 42 -115 0 -5 -26 -8 -57 -7 -50 1 -52 2 -15 5 23 2 42 8 42 13 0 4 -16 50 -35 100 -37 97 -40 110 -27 110 5 0 27 -47 50 -106z m106 84 c3 -13 6 -30 6 -38 -1 -13 -2 -13 -9 0 -16 27 -22 60 -13 60 5 0 12 -10 16 -22z m484 -84 c23 -58 42 -109 42 -115 0 -5 -26 -8 -57 -7 -50 1 -52 2 -15 5 23 2 42 8 42 13 0 4 -16 50 -35 100 -37 97 -40 110 -27 110 5 0 27 -47 50 -106z m146 -2 c20 -59 36 -110 36 -115 0 -4 -26 -6 -57 -5 -50 1 -52 2 -15 5 23 2 42 8 42 13 0 4 -16 50 -35 100 -39 103 -41 110 -21 110 9 0 27 -38 50 -108z m-1305 72 c2 -2 -30 -4 -72 -4 -42 0 -77 4 -77 9 0 9 139 4 149 -5z m981 2 c8 -2 -20 -4 -62 -5 -43 0 -78 3 -78 7 0 7 103 6 140 -2z m-2710 -27 c0 -20 -8 -23 -34 -13 -19 7 -21 31 -3 37 20 7 37 -4 37 -24z m2150 21 c13 -8 12 -10 -2 -10 -10 0 -18 -8 -18 -17 0 -13 -3 -14 -11 -6 -12 12 -6 43 8 43 4 0 15 -5 23 -10z m-2811 -47 c-1 -21 -3 -30 -6 -20 -2 9 -9 17 -14 17 -5 0 -9 9 -9 20 0 11 7 20 15 20 11 0 15 -10 14 -37z m3411 -9 c0 -7 -11 -25 -25 -39 -21 -20 -36 -25 -76 -25 -33 0 -56 6 -67 16 -15 15 -14 16 7 9 13 -4 42 -4 66 -1 35 6 45 12 55 36 12 29 40 32 40 4z m-3050 -51 c0 -7 -11 -13 -24 -13 -13 0 -27 6 -30 13 -5 10 -7 10 -12 0 -9 -19 -94 -17 -94 2 0 13 21 18 80 17 3 0 16 -3 28 -7 20 -6 23 -4 22 17 -1 12 -1 28 0 33 2 12 29 -44 30 -62z m1937 61 c-3 -3 -12 -4 -19 -1 -8 3 -5 6 6 6 11 1 17 -2 13 -5z m878 -46 c6 -25 4 -28 -18 -28 -14 0 -29 5 -32 10 -3 6 1 10 11 10 13 0 15 6 10 32 -6 29 -5 31 8 18 8 -8 18 -27 21 -42z m108 45 c-7 -2 -19 -2 -25 0 -7 3 -2 5 12 5 14 0 19 -2 13 -5z m-1673 -33 c0 -5 -4 -10 -10 -10 -5 0 -10 5 -10 10 0 6 5 10 10 10 6 0 10 -4 10 -10z m1203 -11 c15 6 27 9 27 7 0 -3 3 -11 6 -20 5 -13 -2 -16 -35 -16 -23 0 -41 5 -41 10 0 6 -6 10 -14 10 -8 0 -17 4 -21 10 -3 6 5 5 23 -1 19 -6 37 -6 55 0z m281 5 c30 -12 5 -34 -40 -34 -54 0 -63 26 -11 33 17 2 33 5 34 5 1 1 8 -1 17 -4z"/>
</g>
<g id="layer104" fill="#fa6505" stroke="none">
<path d="M0 780 l0 -780 1980 0 1980 0 0 780 0 780 -1517 -1 -1518 -1 215 -54 215 -53 1288 -1 1287 0 0 -65 0 -65 -992 0 c-546 0 -986 -4 -978 -9 8 -5 59 -19 113 -32 l98 -23 -5 -31 c-3 -16 -8 -60 -12 -97 l-6 -68 46 0 46 0 0 70 c0 68 12 91 25 50 3 -11 10 -20 14 -20 4 0 18 -22 31 -50 l23 -50 59 0 c32 0 58 3 58 6 0 4 -32 45 -72 93 -39 47 -63 78 -52 69 11 -10 25 -18 32 -18 6 0 23 -13 39 -28 36 -35 103 -56 155 -47 32 6 42 13 50 36 12 35 33 33 33 -2 0 -29 29 -38 91 -29 49 7 65 3 58 -15 -7 -16 -27 -10 351 -100 154 -37 282 -69 284 -71 8 -8 -353 -934 -364 -934 -6 0 -576 138 -1266 308 l-1254 307 92 245 c51 134 90 246 88 249 -3 2 -5 -1 -5 -7 0 -7 -17 -12 -45 -12 -32 0 -45 4 -45 14 0 13 65 28 76 17 2 -3 14 -6 25 -8 18 -3 21 1 17 22 -7 34 9 42 32 17 36 -39 150 -51 187 -20 19 15 15 70 -6 95 -25 30 -62 43 -121 43 -40 0 -48 3 -44 15 5 13 -41 15 -385 15 l-391 0 0 65 0 65 415 0 415 0 14 33 c7 19 17 43 20 55 l7 22 -440 0 -441 0 0 -780z m355 468 c3 -13 -1 -61 -8 -108 l-12 -85 -60 -1 -60 -1 50 6 50 6 3 103 c2 81 6 102 17 102 8 0 17 -10 20 -22z m125 -8 c7 -17 10 -34 6 -37 -9 -9 -35 28 -36 50 0 27 16 20 30 -13z m188 5 c16 -34 15 -50 -1 -33 -16 15 -28 58 -18 58 4 0 13 -11 19 -25z m2085 -10 c21 -43 21 -45 2 -45 -8 0 -15 9 -15 21 0 11 -5 29 -10 40 -6 10 -7 19 -2 19 4 0 16 -16 25 -35z m136 -27 c19 -57 20 -63 4 -80 -17 -19 -78 -25 -88 -8 -3 6 4 10 17 10 40 0 51 14 45 56 -2 22 -8 49 -12 62 -4 13 -3 22 3 22 6 0 20 -28 31 -62z m289 -44 c23 -58 42 -109 42 -115 0 -5 -26 -8 -57 -7 -50 1 -52 2 -15 5 23 2 42 8 42 13 0 4 -16 50 -35 100 -37 97 -40 110 -27 110 5 0 27 -47 50 -106z m106 84 c3 -13 6 -30 6 -38 -1 -13 -2 -13 -9 0 -16 27 -22 60 -13 60 5 0 12 -10 16 -22z m484 -84 c23 -58 42 -109 42 -115 0 -5 -26 -8 -57 -7 -50 1 -52 2 -15 5 23 2 42 8 42 13 0 4 -16 50 -35 100 -37 97 -40 110 -27 110 5 0 27 -47 50 -106z m146 -2 c20 -59 36 -110 36 -115 0 -4 -26 -6 -57 -5 -50 1 -52 2 -15 5 23 2 42 8 42 13 0 4 -16 50 -35 100 -39 103 -41 110 -21 110 9 0 27 -38 50 -108z m-1305 72 c2 -2 -30 -4 -72 -4 -42 0 -77 4 -77 9 0 9 139 4 149 -5z m981 2 c8 -2 -20 -4 -62 -5 -43 0 -78 3 -78 7 0 7 103 6 140 -2z m-2710 -27 c0 -20 -8 -23 -34 -13 -19 7 -21 31 -3 37 20 7 37 -4 37 -24z m2150 21 c13 -8 12 -10 -2 -10 -10 0 -18 -8 -18 -17 0 -13 -3 -14 -11 -6 -12 12 -6 43 8 43 4 0 15 -5 23 -10z m-2811 -47 c-1 -21 -3 -30 -6 -20 -2 9 -9 17 -14 17 -5 0 -9 9 -9 20 0 11 7 20 15 20 11 0 15 -10 14 -37z m3411 -9 c0 -7 -11 -25 -25 -39 -21 -20 -36 -25 -76 -25 -33 0 -56 6 -67 16 -15 15 -14 16 7 9 13 -4 42 -4 66 -1 35 6 45 12 55 36 12 29 40 32 40 4z m-3050 -51 c0 -7 -11 -13 -24 -13 -13 0 -27 6 -30 13 -5 10 -7 10 -12 0 -9 -19 -94 -17 -94 2 0 13 21 18 80 17 3 0 16 -3 28 -7 20 -6 23 -4 22 17 -1 12 -1 28 0 33 2 12 29 -44 30 -62z m1937 61 c-3 -3 -12 -4 -19 -1 -8 3 -5 6 6 6 11 1 17 -2 13 -5z m878 -46 c6 -25 4 -28 -18 -28 -14 0 -29 5 -32 10 -3 6 1 10 11 10 13 0 15 6 10 32 -6 29 -5 31 8 18 8 -8 18 -27 21 -42z m108 45 c-7 -2 -19 -2 -25 0 -7 3 -2 5 12 5 14 0 19 -2 13 -5z m-470 -44 c15 6 27 9 27 7 0 -3 3 -11 6 -20 5 -13 -2 -16 -35 -16 -23 0 -41 5 -41 10 0 6 -6 10 -14 10 -8 0 -17 4 -21 10 -3 6 5 5 23 -1 19 -6 37 -6 55 0z m281 5 c30 -12 5 -34 -40 -34 -54 0 -63 26 -11 33 17 2 33 5 34 5 1 1 8 -1 17 -4z"/>
<path d="M1005 1320 l39 -39 -16 -71 -15 -70 54 0 53 0 0 33 1 32 30 -33 c27 -30 35 -33 76 -30 l46 3 -29 34 c-16 19 -40 46 -54 61 -14 15 -42 49 -64 74 -38 45 -39 46 -99 46 l-61 0 39 -40z"/>
<path d="M1273 1284 c-7 -3 -13 -12 -13 -20 0 -8 -4 -14 -10 -14 -12 0 -14 -27 -2 -32 4 -1 15 -16 24 -33 28 -51 140 -69 198 -32 30 18 25 60 -10 97 -29 31 -36 33 -103 36 -40 2 -78 1 -84 -2z m117 -64 c13 -9 13 -11 0 -20 -19 -13 -34 -8 -38 13 -4 19 15 22 38 7z"/>
</g>
<g id="layer105" fill="#fefefe" stroke="none">
<path d="M0 780 l0 -780 1980 0 1980 0 0 780 0 780 -1517 -1 -1518 -1 215 -54 215 -53 1288 -1 1287 0 0 -65 0 -65 -992 0 c-545 0 -989 -3 -985 -6 6 -6 185 -53 205 -54 6 0 12 7 12 15 0 11 12 15 48 15 43 0 52 -4 87 -40 44 -45 65 -51 65 -17 0 40 16 50 79 55 33 2 71 2 84 -2 27 -6 70 -45 75 -66 2 -7 10 -19 19 -25 10 -8 14 -20 10 -34 -4 -16 -1 -21 14 -21 24 0 24 4 -6 78 -14 34 -25 64 -25 67 0 10 86 4 101 -8 9 -7 24 -25 33 -42 16 -28 17 -28 13 -5 -3 14 -8 33 -12 43 -6 15 -1 17 39 17 25 0 46 -4 46 -10 0 -5 6 -10 14 -10 8 0 23 -25 35 -62 19 -57 20 -63 4 -80 -18 -20 -73 -24 -91 -6 -6 6 -15 9 -18 5 -4 -4 -5 -10 -1 -13 3 -3 147 -40 319 -81 172 -42 315 -77 317 -79 8 -8 -352 -934 -364 -934 -6 0 -576 138 -1266 308 l-1254 307 92 245 c64 168 89 248 82 255 -7 7 -8 5 -4 -7 6 -16 1 -18 -39 -18 -34 0 -46 4 -46 15 0 8 -6 15 -13 15 -10 0 -26 33 -63 133 -5 15 0 17 41 17 51 0 80 -21 91 -67 4 -16 13 -23 29 -23 13 0 26 -6 28 -12 3 -7 6 7 6 31 1 34 6 47 26 63 14 11 25 24 25 29 0 5 -157 9 -390 9 l-390 0 0 65 0 65 415 0 415 0 14 33 c7 19 17 43 20 55 l7 22 -440 0 -441 0 0 -780z m135 500 c8 -13 85 -13 85 0 0 15 97 12 104 -2 5 -10 7 -10 12 0 3 7 26 12 56 12 54 0 83 -20 94 -67 4 -16 13 -23 30 -23 13 0 24 -5 24 -11 0 -5 4 -8 9 -5 8 5 31 -43 31 -65 0 -14 -48 -10 -54 4 -5 10 -7 10 -12 0 -9 -19 -94 -17 -94 2 0 8 -3 15 -7 15 -5 0 -16 21 -27 46 -10 25 -20 43 -23 40 -3 -2 -10 -42 -16 -88 l-12 -83 -40 -3 c-68 -6 -98 5 -131 51 -17 23 -57 75 -88 115 l-57 72 55 0 c30 0 58 -4 61 -10z m2873 -2 c9 -9 12 -9 12 0 0 8 17 12 45 12 25 0 45 -4 45 -10 0 -5 6 -10 13 -10 12 0 97 -194 97 -221 0 -11 -100 -12 -117 -1 -6 4 -15 20 -18 35 -6 24 -12 27 -51 27 -24 0 -44 5 -44 10 0 6 -7 10 -15 10 -9 0 -18 7 -21 15 -4 8 -12 15 -18 15 -26 0 -50 103 -29 123 11 12 88 8 101 -5z m242 2 c0 -5 7 -10 15 -10 8 0 17 -14 20 -34 6 -30 11 -34 43 -38 37 -3 37 -3 34 33 -5 52 13 62 102 57 62 -3 79 -7 96 -26 11 -12 25 -22 31 -22 6 0 8 -4 4 -10 -3 -5 3 -18 15 -30 26 -26 25 -34 -5 -65 -22 -21 -35 -25 -80 -25 -30 0 -55 4 -55 9 0 5 -10 13 -22 16 -13 4 -33 17 -46 28 l-23 22 10 -28 c6 -16 11 -33 11 -38 0 -13 -44 -11 -59 4 -11 10 -14 10 -18 0 -7 -19 -93 -17 -93 2 0 8 -6 15 -13 15 -10 0 -26 33 -63 133 -5 15 0 17 45 17 28 0 51 -4 51 -10z m450 0 c0 -5 6 -10 13 -10 12 0 97 -194 97 -221 0 -11 -100 -12 -116 -1 -10 6 -84 214 -84 235 0 4 20 7 45 7 25 0 45 -4 45 -10z m140 0 c0 -5 9 -10 19 -10 16 0 26 -21 55 -108 20 -59 36 -110 36 -115 0 -9 -102 -9 -116 1 -10 6 -84 214 -84 235 0 4 20 7 45 7 25 0 45 -4 45 -10z"/>
<path d="M3010 1205 c0 -8 7 -15 15 -15 8 0 15 7 15 15 0 8 -7 15 -15 15 -8 0 -15 -7 -15 -15z"/>
<path d="M978 800 c-70 -195 -74 -211 -54 -208 18 3 29 27 73 153 28 83 53 154 55 160 3 5 33 -64 69 -153 48 -123 68 -162 82 -162 9 0 17 4 17 8 0 9 -157 403 -163 409 -2 2 -38 -91 -79 -207z"/>
<path d="M2072 976 c-32 -16 -47 -32 -63 -66 -11 -25 -25 -53 -30 -62 -11 -21 -12 -108 -1 -108 4 0 13 -20 21 -44 8 -29 21 -47 37 -55 13 -6 24 -15 24 -20 0 -30 152 -45 213 -20 39 16 91 65 82 79 -10 17 -26 12 -62 -20 -18 -16 -40 -30 -48 -30 -8 0 -15 -4 -15 -10 0 -5 -15 -10 -33 -10 -65 0 -151 59 -162 111 -4 16 -11 29 -16 29 -5 0 -9 20 -9 45 0 25 5 45 10 45 6 0 10 7 10 16 0 20 31 74 43 74 5 0 15 7 23 15 11 11 37 15 90 15 62 0 77 -3 91 -20 10 -11 23 -20 29 -20 14 0 24 -23 24 -54 0 -12 5 -27 12 -34 9 -9 -5 -12 -65 -12 -62 0 -77 -3 -77 -15 0 -12 17 -15 91 -15 l92 0 -6 49 c-8 71 -30 105 -83 135 -60 33 -156 34 -222 2z"/>
<path d="M2780 992 c0 -5 -11 -14 -24 -20 -30 -14 -42 -52 -15 -52 10 0 23 8 28 19 13 24 71 35 105 20 34 -16 50 -65 35 -107 -6 -18 -17 -32 -24 -32 -7 0 -18 -6 -24 -14 -7 -8 -26 -18 -42 -21 -16 -4 -29 -12 -29 -19 0 -7 -11 -19 -25 -26 -21 -11 -25 -21 -25 -57 0 -51 21 -79 70 -93 43 -12 79 -3 108 26 19 20 20 25 8 30 -8 3 -25 -4 -37 -15 -41 -38 -99 -18 -114 39 -7 30 22 66 60 76 13 3 26 12 29 20 3 8 12 14 20 14 8 0 27 11 41 25 21 22 25 35 25 83 0 53 -2 59 -34 85 -28 21 -45 27 -85 27 -28 0 -51 -4 -51 -8z"/>
<path d="M1260 785 c0 -167 2 -195 15 -195 13 0 15 28 15 195 0 167 -2 195 -15 195 -13 0 -15 -28 -15 -195z"/>
<path d="M1363 968 c21 -53 170 -378 173 -376 2 2 90 221 151 376 3 7 -3 12 -14 12 -15 0 -27 -16 -46 -60 l-26 -60 -78 0 -79 0 -29 60 c-16 33 -35 60 -43 60 -8 0 -12 -6 -9 -12z m225 -160 c-3 -7 -15 -44 -28 -82 l-23 -70 -38 75 c-21 41 -38 77 -39 82 0 4 30 7 66 7 49 0 65 -3 62 -12z"/>
<path d="M1780 805 l0 -175 -55 0 c-48 0 -55 -2 -55 -20 0 -19 7 -20 135 -20 128 0 135 1 135 20 0 18 -7 20 -60 20 l-60 0 0 175 c0 168 -1 175 -20 175 -19 0 -20 -7 -20 -175z"/>
<path d="M2460 785 l0 -195 105 0 c98 0 105 1 105 20 0 18 -7 20 -85 20 l-85 0 0 60 0 60 85 0 c69 0 85 3 85 15 0 12 -16 15 -85 15 l-85 0 0 90 0 90 85 0 c50 0 85 4 85 10 0 6 -42 10 -105 10 l-105 0 0 -195z"/>
</g>


</svg>